<svg width="20" height="20" viewBox="0 0 20 20" fill="none" xmlns="http://www.w3.org/2000/svg">
<path d="M9.65764 0C4.32387 0 0 4.29439 0 9.5918C0 14.8892 4.32387 19.1836 9.65764 19.1836C14.9914 19.1836 19.3153 14.8892 19.3153 9.5918C19.3091 4.29695 14.9888 0.00616654 9.65764 0Z" fill="#5243C2" fill-opacity="0.103693"/>
<path d="M13.4616 7.13457L9.62927 12.7541C9.53787 12.8851 9.40158 12.971 9.25103 12.9923C9.10047 13.0137 8.94828 12.9689 8.82865 12.8678L6.09197 10.5036C5.85048 10.2948 5.81138 9.91398 6.00463 9.65303C6.19789 9.39209 6.55032 9.34984 6.79182 9.55866L9.07387 11.5314L12.5602 6.4189C12.6745 6.23354 12.8739 6.13105 13.0791 6.15214C13.2843 6.17322 13.4622 6.31447 13.5422 6.5198C13.6221 6.72512 13.5912 6.9613 13.4616 7.13457Z" fill="#5243C2"/>
</svg>
