<svg width="350" height="23" viewBox="0 0 350 23" fill="none" xmlns="http://www.w3.org/2000/svg">
<g clip-path="url(#clip0_2501_3417)">
<path d="M10.5 11.3604H151.13" stroke="white" stroke-width="1.5" stroke-miterlimit="10" stroke-linecap="round" stroke-linejoin="round"/>
<path d="M198.27 11.3604H338.89" stroke="white" stroke-width="1.5" stroke-miterlimit="10" stroke-linecap="round" stroke-linejoin="round"/>
<path d="M157.61 17.8399C161.189 17.8399 164.09 14.9387 164.09 11.3599C164.09 7.78108 161.189 4.87988 157.61 4.87988C154.031 4.87988 151.13 7.78108 151.13 11.3599C151.13 14.9387 154.031 17.8399 157.61 17.8399Z" stroke="white" stroke-width="1.5" stroke-miterlimit="10" stroke-linecap="round" stroke-linejoin="round"/>
<path d="M10.5595 11.3598C10.5595 13.1698 9.09953 14.6298 7.28953 14.6298C5.47953 14.6298 4.01953 13.1698 4.01953 11.3598C4.01953 9.54984 5.47953 8.08984 7.28953 8.08984C9.09953 8.08984 10.5595 9.55984 10.5595 11.3598Z" stroke="white" stroke-width="1.5" stroke-miterlimit="10" stroke-linecap="round" stroke-linejoin="round"/>
<path d="M7.29 11.3598C7.29 13.1698 5.83 14.6298 4.02 14.6298C2.21 14.6298 0.75 13.1698 0.75 11.3598C0.75 9.54984 2.21 8.08984 4.02 8.08984C5.83 8.08984 7.29 9.55984 7.29 11.3598Z" stroke="white" stroke-width="1.5" stroke-miterlimit="10" stroke-linecap="round" stroke-linejoin="round"/>
<path d="M348.71 11.3598C348.71 13.1698 347.25 14.6298 345.44 14.6298C343.63 14.6298 342.17 13.1698 342.17 11.3598C342.17 9.54984 343.63 8.08984 345.44 8.08984C347.24 8.08984 348.71 9.55984 348.71 11.3598Z" stroke="white" stroke-width="1.5" stroke-miterlimit="10" stroke-linecap="round" stroke-linejoin="round"/>
<path d="M345.44 11.3598C345.44 13.1698 343.98 14.6298 342.17 14.6298C340.36 14.6298 338.9 13.1698 338.9 11.3598C338.9 9.54984 340.36 8.08984 342.17 8.08984C343.97 8.08984 345.44 9.55984 345.44 11.3598Z" stroke="white" stroke-width="1.5" stroke-miterlimit="10" stroke-linecap="round" stroke-linejoin="round"/>
<path d="M191.79 17.8399C195.368 17.8399 198.27 14.9387 198.27 11.3599C198.27 7.78108 195.368 4.87988 191.79 4.87988C188.211 4.87988 185.31 7.78108 185.31 11.3599C185.31 14.9387 188.211 17.8399 191.79 17.8399Z" stroke="white" stroke-width="1.5" stroke-miterlimit="10" stroke-linecap="round" stroke-linejoin="round"/>
<path d="M181.843 19.1979C186.174 15.2508 186.485 8.54013 182.538 4.20919C178.591 -0.121744 171.88 -0.432886 167.549 3.51424C163.218 7.46136 162.907 14.172 166.854 18.503C170.801 22.8339 177.512 23.1451 181.843 19.1979Z" stroke="white" stroke-width="1.5" stroke-miterlimit="10" stroke-linecap="round" stroke-linejoin="round"/>
<path d="M180.29 11.3595C180.29 14.4495 177.79 16.9495 174.7 16.9495C171.61 16.9495 169.11 14.4495 169.11 11.3595C169.11 8.26953 171.61 5.76953 174.7 5.76953C177.78 5.76953 180.29 8.27953 180.29 11.3595Z" stroke="white" stroke-width="1.5" stroke-miterlimit="10" stroke-linecap="round" stroke-linejoin="round"/>
</g>
<defs>
<clipPath id="clip0_2501_3417">
<rect width="349.46" height="22.73" fill="white"/>
</clipPath>
</defs>
</svg>
