<svg width="22" height="22" viewBox="0 0 22 22" fill="none" xmlns="http://www.w3.org/2000/svg">
<path d="M15.3959 0H6.59824C2.96004 0 0 2.96004 0 6.59824V11.7302C0 15.2456 2.7632 18.1276 6.23167 18.3185V21.3772C6.23167 21.7207 6.51173 22 6.85594 22C7.02053 22 7.17632 21.9348 7.29399 21.8171L7.98167 21.1294C9.78739 19.3233 12.1888 18.3284 14.743 18.3284H15.3959C19.0341 18.3284 21.9941 15.3684 21.9941 11.7302V6.59824C21.9941 2.96004 19.0341 0 15.3959 0ZM6.23167 10.6305C5.42302 10.6305 4.7654 9.97287 4.7654 9.16422C4.7654 8.35557 5.42302 7.69795 6.23167 7.69795C7.04032 7.69795 7.69795 8.35557 7.69795 9.16422C7.69795 9.97287 7.03996 10.6305 6.23167 10.6305ZM10.9971 10.6305C10.1884 10.6305 9.53079 9.97287 9.53079 9.16422C9.53079 8.35557 10.1884 7.69795 10.9971 7.69795C11.8057 7.69795 12.4633 8.35557 12.4633 9.16422C12.4633 9.97287 11.8054 10.6305 10.9971 10.6305ZM15.7625 10.6305C14.9538 10.6305 14.2962 9.97287 14.2962 9.16422C14.2962 8.35557 14.9538 7.69795 15.7625 7.69795C16.5711 7.69795 17.2287 8.35557 17.2287 9.16422C17.2287 9.97287 16.5708 10.6305 15.7625 10.6305Z" fill="#AFAFAF"/>
</svg>
