<svg width="84" height="50" viewBox="0 0 84 50" fill="none" xmlns="http://www.w3.org/2000/svg">
<path d="M37.9589 34.1227C39.9972 39.1337 43.71 43.2828 48.4646 45.8633C53.2191 48.4437 58.7214 49.2957 64.0337 48.2741C69.346 47.2525 74.1398 44.4205 77.5982 40.2607C81.0566 36.1009 82.9656 30.8706 83.0001 25.461C83.0345 20.0515 81.1922 14.7973 77.787 10.5939C74.3818 6.39037 69.6245 3.49762 64.3256 2.4085C59.0267 1.31939 53.514 2.10129 48.727 4.62098C43.94 7.14067 40.1747 11.2422 38.0727 16.2269" stroke="white" stroke-width="2" stroke-linecap="round"/>
<path d="M67.6875 25.2197C67.6782 24.8621 67.5705 24.6463 67.4327 24.4915L59.8592 15.1701C59.5016 14.6658 58.6909 14.5858 58.1841 14.9954C57.6773 15.405 57.6505 16.1706 58.0569 16.6266L64.083 24.0542H1.96582C1.32213 24.0542 0.800781 24.5759 0.800781 25.2192C0.800781 25.8629 1.32256 26.3843 1.96582 26.3843H64.083L58.0569 33.8118C57.5957 34.2723 57.7265 35.0793 58.2137 35.5125C58.5884 35.8457 59.5873 35.7397 59.8591 35.2683L67.4326 25.9469C67.6297 25.7056 67.6899 25.5259 67.6874 25.2187L67.6875 25.2197Z" fill="white"/>
</svg>
