<svg width="64" height="37" viewBox="0 0 64 37" fill="none" xmlns="http://www.w3.org/2000/svg">
<path d="M34.9907 25.0939C33.4525 28.8442 30.6506 31.9496 27.0626 33.8808C23.4745 35.812 19.3223 36.4497 15.3133 35.6851C11.3044 34.9205 7.68675 32.801 5.07687 29.6877C2.46698 26.5744 1.02632 22.66 1.00034 18.6114C0.974358 14.5627 2.36467 10.6304 4.9344 7.48444C7.50412 4.33846 11.0942 2.17347 15.0931 1.35836C19.0919 0.543239 23.252 1.12843 26.8645 3.01422C30.4771 4.90001 33.3185 7.96971 34.9048 11.7003" stroke="#242A3A" stroke-width="2" stroke-linecap="round"/>
<path d="M12.5561 18.4302C12.5631 18.1626 12.6444 18.0011 12.7484 17.8852L18.4637 10.9089C18.7336 10.5315 19.3454 10.4715 19.7279 10.7781C20.1103 11.0847 20.1305 11.6577 19.8239 11.9989L15.2763 17.5579H62.153C62.6388 17.5579 63.0322 17.9484 63.0322 18.4298C63.0322 18.9116 62.6385 19.3018 62.153 19.3018H15.2763L19.8239 24.8607C20.1719 25.2053 20.0732 25.8094 19.7055 26.1336C19.4227 26.383 18.669 26.3036 18.4638 25.9508L12.7484 18.9745C12.5997 18.7938 12.5543 18.6594 12.5562 18.4295L12.5561 18.4302Z" fill="#242A3A"/>
</svg>
