<svg width="84" height="14" viewBox="0 0 84 14" fill="none" xmlns="http://www.w3.org/2000/svg">
<path d="M11.8697 6.49413C12.043 6.31635 12.1438 6.08125 12.1528 5.83398C12.1619 5.58674 12.0784 5.34497 11.9185 5.15523C11.7587 4.96541 11.5338 4.84112 11.2871 4.80624L8.35213 4.37456C8.30748 4.36762 8.26963 4.33823 8.25216 4.2969L6.94768 1.55585C6.83888 1.32643 6.64611 1.14672 6.40862 1.05335C6.17112 0.96008 5.90663 0.96008 5.66912 1.05335C5.43162 1.14672 5.23887 1.32642 5.13006 1.55585L3.82558 4.2969C3.80811 4.33823 3.77026 4.36762 3.72561 4.37456L0.851296 4.80624C0.606512 4.84469 0.384642 4.97111 0.227781 5.1616C0.0709338 5.352 -0.00981942 5.59308 0.000954309 5.83889C0.0117278 6.0846 0.113154 6.31788 0.286026 6.49411L2.46015 8.69567C2.49053 8.72641 2.50354 8.77006 2.4949 8.81227L1.95574 11.8945C1.92788 12.0819 1.95399 12.2732 2.03086 12.4466C2.10783 12.6199 2.23255 12.7682 2.39057 12.8743C2.55373 12.9886 2.74755 13.0517 2.9472 13.0557C3.11744 13.0545 3.28477 13.0115 3.43415 12.9305L6.0041 11.5146V11.5145C6.04486 11.4931 6.09378 11.4931 6.13454 11.5145L8.70449 12.9304V12.9305C8.86861 13.0216 9.05535 13.0645 9.24317 13.0546C9.43089 13.0447 9.612 12.9822 9.76546 12.8743C9.92357 12.7682 10.0482 12.62 10.1252 12.4466C10.202 12.2732 10.2282 12.0819 10.2003 11.8945L9.6785 8.81227C9.66987 8.77006 9.68287 8.72641 9.71325 8.69567L11.8697 6.49413Z" fill="#F4A916"/>
<path d="M29.7015 6.49413C29.8747 6.31635 29.9756 6.08125 29.9846 5.83398C29.9937 5.58674 29.9102 5.34497 29.7503 5.15523C29.5905 4.96541 29.3656 4.84112 29.1189 4.80624L26.1839 4.37456C26.1393 4.36762 26.1014 4.33823 26.0839 4.2969L24.7795 1.55585C24.6707 1.32643 24.4779 1.14672 24.2404 1.05335C24.0029 0.96008 23.7384 0.96008 23.5009 1.05335C23.2634 1.14672 23.0707 1.32642 22.9618 1.55585L21.6574 4.2969C21.6399 4.33823 21.602 4.36762 21.5574 4.37456L18.6831 4.80624C18.4383 4.84469 18.2164 4.97111 18.0596 5.1616C17.9027 5.352 17.822 5.59308 17.8327 5.83889C17.8435 6.0846 17.9449 6.31788 18.1178 6.49411L20.2919 8.69567C20.3223 8.72641 20.3353 8.77006 20.3267 8.81227L19.7875 11.8945C19.7597 12.0819 19.7858 12.2732 19.8626 12.4466C19.9396 12.6199 20.0643 12.7682 20.2224 12.8743C20.3855 12.9886 20.5793 13.0517 20.779 13.0557C20.9492 13.0545 21.1166 13.0115 21.2659 12.9305L23.8359 11.5146V11.5145C23.8766 11.4931 23.9256 11.4931 23.9663 11.5145L26.5363 12.9304V12.9305C26.7004 13.0216 26.8871 13.0645 27.075 13.0546C27.2627 13.0447 27.4438 12.9822 27.5972 12.8743C27.7554 12.7682 27.88 12.62 27.957 12.4466C28.0338 12.2732 28.0599 12.0819 28.0321 11.8945L27.5103 8.81227C27.5017 8.77006 27.5147 8.72641 27.545 8.69567L29.7015 6.49413Z" fill="#F4A916"/>
<path d="M47.5338 6.49413C47.707 6.31635 47.8079 6.08125 47.8169 5.83398C47.8259 5.58674 47.7425 5.34497 47.5826 5.15523C47.4227 4.96541 47.1979 4.84112 46.9511 4.80624L44.0162 4.37456C43.9715 4.36762 43.9337 4.33823 43.9162 4.2969L42.6117 1.55585C42.5029 1.32643 42.3102 1.14672 42.0727 1.05335C41.8352 0.96008 41.5707 0.96008 41.3332 1.05335C41.0957 1.14672 40.9029 1.32642 40.7941 1.55585L39.4896 4.2969C39.4722 4.33823 39.4343 4.36762 39.3897 4.37456L36.5154 4.80624C36.2706 4.84469 36.0487 4.97111 35.8918 5.1616C35.735 5.352 35.6542 5.59308 35.665 5.83889C35.6758 6.0846 35.7772 6.31788 35.9501 6.49411L38.1242 8.69567C38.1546 8.72641 38.1676 8.77006 38.159 8.81227L37.6198 11.8945C37.5919 12.0819 37.6181 12.2732 37.6949 12.4466C37.7719 12.6199 37.8966 12.7682 38.0546 12.8743C38.2178 12.9886 38.4116 13.0517 38.6113 13.0557C38.7815 13.0545 38.9488 13.0115 39.0982 12.9305L41.6682 11.5146V11.5145C41.7089 11.4931 41.7578 11.4931 41.7986 11.5145L44.3685 12.9304V12.9305C44.5327 13.0216 44.7194 13.0645 44.9072 13.0546C45.0949 13.0447 45.2761 12.9822 45.4295 12.8743C45.5876 12.7682 45.7123 12.62 45.7892 12.4466C45.8661 12.2732 45.8922 12.0819 45.8644 11.8945L45.3426 8.81227C45.3339 8.77006 45.3469 8.72641 45.3773 8.69567L47.5338 6.49413Z" fill="#F4A916"/>
<path d="M65.3658 6.49413C65.5391 6.31635 65.6399 6.08125 65.6489 5.83398C65.658 5.58674 65.5745 5.34497 65.4146 5.15523C65.2548 4.96541 65.0299 4.84112 64.7832 4.80624L61.8482 4.37456C61.8036 4.36762 61.7657 4.33823 61.7483 4.2969L60.4438 1.55585C60.335 1.32643 60.1422 1.14672 59.9047 1.05335C59.6672 0.96008 59.4027 0.96008 59.1652 1.05335C58.9277 1.14672 58.735 1.32642 58.6262 1.55585L57.3217 4.2969C57.3042 4.33823 57.2664 4.36762 57.2217 4.37456L54.3474 4.80624C54.1026 4.84469 53.8807 4.97111 53.7239 5.1616C53.567 5.352 53.4863 5.59308 53.497 5.83889C53.5078 6.0846 53.6092 6.31788 53.7821 6.49411L55.9562 8.69567C55.9866 8.72641 55.9996 8.77006 55.991 8.81227L55.4518 11.8945C55.424 12.0819 55.4501 12.2732 55.527 12.4466C55.6039 12.6199 55.7286 12.7682 55.8867 12.8743C56.0498 12.9886 56.2436 13.0517 56.4433 13.0557C56.6135 13.0545 56.7809 13.0115 56.9302 12.9305L59.5002 11.5146V11.5145C59.541 11.4931 59.5899 11.4931 59.6306 11.5145L62.2006 12.9304V12.9305C62.3647 13.0216 62.5514 13.0645 62.7393 13.0546C62.927 13.0447 63.1081 12.9822 63.2616 12.8743C63.4197 12.7682 63.5443 12.62 63.6213 12.4466C63.6981 12.2732 63.7242 12.0819 63.6964 11.8945L63.1746 8.81227C63.166 8.77006 63.179 8.72641 63.2093 8.69567L65.3658 6.49413Z" fill="#F4A916"/>
<path d="M83.1971 6.49413C83.3703 6.31635 83.4712 6.08125 83.4802 5.83398C83.4893 5.58674 83.4058 5.34497 83.2459 5.15523C83.0861 4.96541 82.8612 4.84112 82.6145 4.80624L79.6795 4.37456C79.6349 4.36762 79.597 4.33823 79.5795 4.2969L78.2751 1.55585C78.1663 1.32643 77.9735 1.14672 77.736 1.05335C77.4985 0.96008 77.234 0.96008 76.9965 1.05335C76.759 1.14672 76.5663 1.32642 76.4575 1.55585L75.153 4.2969C75.1355 4.33823 75.0977 4.36762 75.053 4.37456L72.1787 4.80624C71.9339 4.84469 71.712 4.97111 71.5552 5.1616C71.3983 5.352 71.3176 5.59308 71.3283 5.83889C71.3391 6.0846 71.4405 6.31788 71.6134 6.49411L73.7875 8.69567C73.8179 8.72641 73.8309 8.77006 73.8223 8.81227L73.2831 11.8945C73.2553 12.0819 73.2814 12.2732 73.3583 12.4466C73.4352 12.6199 73.5599 12.7682 73.718 12.8743C73.8811 12.9886 74.0749 13.0517 74.2746 13.0557C74.4448 13.0545 74.6122 13.0115 74.7615 12.9305L77.3315 11.5146V11.5145C77.3723 11.4931 77.4212 11.4931 77.4619 11.5145L80.0319 12.9304V12.9305C80.196 13.0216 80.3827 13.0645 80.5706 13.0546C80.7583 13.0447 80.9394 12.9822 81.0929 12.8743C81.251 12.7682 81.3756 12.62 81.4526 12.4466C81.5294 12.2732 81.5555 12.0819 81.5277 11.8945L81.0059 8.81227C80.9973 8.77006 81.0103 8.72641 81.0406 8.69567L83.1971 6.49413Z" fill="#D8D8D8"/>
</svg>
