<svg width="28" height="27" viewBox="0 0 28 27" fill="none" xmlns="http://www.w3.org/2000/svg">
<ellipse opacity="0.5" cx="13.5038" cy="13.5083" rx="13.5038" ry="13.4272" fill="#D8D8D8"/>
<path d="M19.1119 8.09518C19.1295 8.09518 19.1295 8.07595 19.1295 8.07595L19.1823 8.01812C19.1823 7.99889 19.1999 7.99889 19.1999 7.97952C19.1999 7.96029 19.2175 7.96029 19.2175 7.94092C19.2175 7.92169 19.235 7.92169 19.235 7.90232C19.235 7.88309 19.235 7.88309 19.2526 7.86372C19.2526 7.84449 19.2526 7.84449 19.2702 7.82512V7.78652V7.76729V7.70946V7.69023C19.2702 7.67099 19.2702 7.67099 19.2526 7.65163C19.2526 7.63239 19.2526 7.63239 19.235 7.61303V7.59379C19.235 7.57456 19.2175 7.5552 19.1998 7.53596L19.1822 7.51673C19.1646 7.4975 19.1646 7.4975 19.1469 7.47813L19.1294 7.4589C19.1118 7.4589 19.1118 7.43967 19.0941 7.43967C19.0765 7.43967 19.0765 7.42043 19.0588 7.42043C19.0413 7.42043 19.0413 7.4012 19.0236 7.4012C19.006 7.4012 19.006 7.4012 18.9883 7.38197H18.953H18.9002H18.8826L9.63546 7.38184C9.44169 7.38184 9.2832 7.55533 9.2832 7.76742V20.0878C9.2832 20.2999 9.4417 20.4734 9.63546 20.4734C9.82921 20.4734 9.98771 20.2999 9.98771 20.0878V15.5376H19.0591C19.0943 15.5376 19.1119 15.5376 19.1472 15.5183H19.1647C19.1823 15.5183 19.2 15.4991 19.2176 15.4991C19.2176 15.4991 19.2351 15.4991 19.2351 15.4799C19.2527 15.4606 19.2704 15.4606 19.288 15.4413C19.288 15.4413 19.3055 15.4413 19.3055 15.422C19.3231 15.4028 19.3408 15.3834 19.3584 15.345C19.3584 15.345 19.3584 15.3257 19.3759 15.3257C19.3759 15.3065 19.3935 15.3065 19.3935 15.2871C19.3935 15.2679 19.3935 15.2679 19.4111 15.2485V15.2099V15.1713V15.1521V15.1135V15.0749C19.4111 15.0557 19.4111 15.0557 19.3935 15.0363C19.3935 15.0171 19.3935 15.0171 19.3759 14.9977C19.3759 14.9785 19.3584 14.9785 19.3584 14.9591C19.3584 14.9399 19.3408 14.9399 19.3408 14.9205C19.3408 14.9013 19.3232 14.9013 19.3232 14.9013L19.2881 14.8628C19.2705 14.8628 19.2705 14.8436 19.2528 14.8436L14.5322 11.585L19.1119 8.09518Z" fill="#242A3A"/>
</svg>
