<svg width="25" height="25" viewBox="0 0 25 25" fill="none" xmlns="http://www.w3.org/2000/svg">
<g id="Group">
<path id="Vector" d="M18.2974 12.4352C18.2932 13.9945 17.6698 15.4882 16.5642 16.5877C15.4588 17.6874 13.9617 18.3026 12.4025 18.2984C10.8432 18.2942 9.3495 17.6708 8.25004 16.5652C7.15033 15.4598 6.53512 13.9627 6.53933 12.4035C6.54354 10.8442 7.16689 9.35049 8.27248 8.25103C9.3779 7.15132 10.875 6.53611 12.4342 6.54032C13.9926 6.54734 15.4846 7.1716 16.5836 8.27653C17.6826 9.38146 18.2988 10.8769 18.2974 12.4352ZM24.7902 7.19413L24.7618 17.7113C24.7546 19.5933 24.0011 21.3959 22.6666 22.7232C21.3321 24.0504 19.5256 24.7942 17.6435 24.7912L7.12636 24.7628C5.24433 24.7556 3.44173 24.0021 2.11451 22.6677C0.787288 21.3332 0.0434572 19.5266 0.0464348 17.6446L0.0748284 7.12741C0.0820222 5.24538 0.835527 3.44278 2.16999 2.11556C3.50446 0.788339 5.31104 0.0445084 7.19308 0.047486L17.7103 0.0758796C19.5923 0.0830735 21.3949 0.836578 22.7221 2.17104C24.0493 3.50551 24.7932 5.3121 24.7902 7.19413ZM23.2126 7.18987C23.2149 5.72594 22.6365 4.32096 21.604 3.28309C20.5718 2.24499 19.17 1.65903 17.706 1.65345L7.18882 1.62506C5.72489 1.62275 4.31991 2.20116 3.28204 3.23363C2.24394 4.2659 1.65798 5.66768 1.6524 7.13167L1.62401 17.6488C1.6217 19.1128 2.20011 20.5178 3.23258 21.5556C4.26485 22.5937 5.66663 23.1797 7.13062 23.1853L17.6478 23.2137C19.1117 23.216 20.5167 22.6375 21.5546 21.6051C22.5927 20.5728 23.1786 19.171 23.1842 17.707L23.2126 7.18987ZM20.7159 4.87451C20.683 4.79554 20.6428 4.71961 20.5953 4.64811C20.5458 4.57778 20.4915 4.51097 20.433 4.44789C20.3702 4.3888 20.3034 4.33416 20.2332 4.28443C20.1622 4.23658 20.0867 4.19576 20.0079 4.16269C19.9277 4.13102 19.8451 4.10614 19.7609 4.08854C19.5903 4.05662 19.4156 4.05615 19.2449 4.08715C19.1606 4.10335 19.0779 4.12778 18.9982 4.15996C18.919 4.19262 18.843 4.23303 18.7718 4.28049C18.7003 4.32865 18.6332 4.38294 18.5713 4.44287C18.5125 4.50539 18.4578 4.57214 18.4079 4.64221C18.3603 4.71344 18.3194 4.78916 18.2864 4.86795C18.2538 4.94791 18.2286 5.03048 18.2115 5.11495C18.1768 5.28506 18.1763 5.46019 18.2101 5.63024C18.2268 5.7148 18.2515 5.79774 18.2836 5.87765C18.3163 5.95685 18.3567 6.03278 18.4039 6.10404C18.4535 6.17461 18.5078 6.24142 18.5663 6.3045C18.6279 6.36476 18.6946 6.4194 18.7659 6.46796C18.8369 6.5158 18.9126 6.55638 18.9916 6.58947C19.0711 6.62208 19.1537 6.64695 19.2379 6.66385C19.408 6.69929 19.5836 6.69976 19.7539 6.66524C19.8382 6.6481 19.9209 6.62367 20.0013 6.59219C20.0803 6.55954 20.156 6.51936 20.2272 6.4719C20.2978 6.42232 20.3649 6.36804 20.4279 6.30952C20.4868 6.24676 20.5414 6.18 20.5914 6.10995C20.688 5.96724 20.7547 5.80638 20.7873 5.6372C20.823 5.46733 20.8234 5.29197 20.7887 5.12191C20.7725 5.03735 20.748 4.95441 20.7159 4.87451Z" fill="white"/>
</g>
</svg>
