<svg width="84" height="50" viewBox="0 0 84 50" fill="none" xmlns="http://www.w3.org/2000/svg">
<path d="M46.0417 34.1227C44.0034 39.1337 40.2906 43.2828 35.5361 45.8633C30.7815 48.4437 25.2793 49.2957 19.9669 48.2741C14.6546 47.2525 9.86082 44.4205 6.40242 40.2607C2.94402 36.1009 1.03497 30.8706 1.00054 25.461C0.96612 20.0515 2.80845 14.7973 6.21363 10.5939C9.61881 6.39037 14.3761 3.49762 19.6751 2.4085C24.974 1.31939 30.4866 2.10129 35.2736 4.62098C40.0606 7.14067 43.8259 11.2422 45.9279 16.2269" stroke="white" stroke-width="2" stroke-linecap="round"/>
<path d="M16.313 25.2197C16.3223 24.8621 16.43 24.6463 16.5678 24.4915L24.1413 15.1701C24.4989 14.6658 25.3096 14.5858 25.8164 14.9954C26.3232 15.405 26.35 16.1706 25.9436 16.6266L19.9175 24.0542H82.0347C82.6784 24.0542 83.1997 24.5759 83.1997 25.2192C83.1997 25.8629 82.6779 26.3843 82.0347 26.3843H19.9175L25.9436 33.8118C26.4048 34.2723 26.274 35.0793 25.7867 35.5125C25.4121 35.8457 24.4132 35.7397 24.1414 35.2683L16.5679 25.9469C16.3708 25.7056 16.3106 25.5259 16.3131 25.2187L16.313 25.2197Z" fill="white"/>
</svg>
