<svg width="24" height="20" viewBox="0 0 24 20" fill="none" xmlns="http://www.w3.org/2000/svg">
<path d="M22.6399 2.4499C21.7962 1.34129 20.6042 0.548477 19.2556 0.19883C17.907 -0.150818 16.48 -0.0370032 15.2039 0.521989C14.0617 1.01489 13.043 1.84591 12.2168 2.94874C11.3906 1.84322 10.3719 1.01219 9.22974 0.521989C7.9536 -0.0370032 6.5266 -0.150818 5.17799 0.19883C3.82938 0.548477 2.63744 1.34129 1.79365 2.4499C0.903843 3.61582 0.433594 5.07295 0.433594 6.66328C0.433594 8.95197 1.7985 11.4628 4.49004 14.129C6.68328 16.3007 9.27504 18.0792 10.6243 18.9458C11.0997 19.2501 11.6524 19.4118 12.2168 19.4118C12.7812 19.4118 13.3339 19.2501 13.8093 18.9458C15.1575 18.0792 17.7503 16.3007 19.9436 14.129C22.6351 11.4639 24 8.95197 24 6.66328C24 5.07295 23.5298 3.61582 22.6399 2.4499Z" fill="#F9595F"/>
</svg>
