<svg width="64" height="37" viewBox="0 0 64 37" fill="none" xmlns="http://www.w3.org/2000/svg">
<path d="M28.0416 11.9061C29.5799 8.15576 32.3817 5.05044 35.9698 3.11921C39.5578 1.18797 43.7101 0.550326 47.719 1.31491C51.728 2.07949 55.3456 4.19899 57.9555 7.31228C60.5654 10.4256 62.006 14.34 62.032 18.3886C62.058 22.4373 60.6677 26.3696 58.098 29.5156C55.5282 32.6615 51.9381 34.8265 47.9393 35.6416C43.9405 36.4568 39.7804 35.8716 36.1678 33.9858C32.5553 32.1 29.7138 29.0303 28.1276 25.2997" stroke="#242A3A" stroke-width="2" stroke-linecap="round"/>
<path d="M50.4761 18.5698C50.4691 18.8374 50.3878 18.9989 50.2839 19.1148L44.5685 26.0911C44.2986 26.4685 43.6868 26.5285 43.3044 26.2219C42.9219 25.9153 42.9017 25.3423 43.2084 25.0011L47.756 19.4421L0.879199 19.4421C0.393437 19.4421 0 19.0516 0 18.5702C0 18.0884 0.393759 17.6982 0.879199 17.6982L47.756 17.6982L43.2084 12.1393C42.8603 11.7947 42.959 11.1906 43.3267 10.8664C43.6095 10.617 44.3633 10.6964 44.5684 11.0492L50.2838 18.0255C50.4325 18.2062 50.4779 18.3406 50.4761 18.5705L50.4761 18.5698Z" fill="#242A3A"/>
</svg>
