<svg width="43" height="43" viewBox="0 0 43 43" fill="none" xmlns="http://www.w3.org/2000/svg">
<mask id="mask0_1616_3904" style="mask-type:alpha" maskUnits="userSpaceOnUse" x="0" y="0" width="43" height="43">
<rect x="0.295898" width="42.3348" height="42.3669" fill="#C4C4C4"/>
</mask>
<g mask="url(#mask0_1616_3904)">
<path d="M21.4638 8.82617C20.5743 8.82617 19.853 9.54806 19.853 10.4383V19.5728H10.7254C9.83587 19.5728 9.1145 20.2943 9.1145 21.1849C9.1145 22.075 9.83584 22.7969 10.7254 22.7969H19.853V31.9315C19.853 32.8216 20.5743 33.5435 21.4638 33.5435C22.3534 33.5435 23.0747 32.8217 23.0747 31.9315V22.7969H32.2023C33.0918 22.7969 33.8132 22.0751 33.8132 21.1849C33.8132 20.2947 33.0918 19.5728 32.2023 19.5728H23.0747V10.4383C23.0747 9.54809 22.3537 8.82617 21.4638 8.82617Z" fill="black"/>
</g>
</svg>
