<svg width="44" height="44" viewBox="0 0 44 44" fill="none" xmlns="http://www.w3.org/2000/svg">
<path d="M20.8178 22.0056L14.6538 15.8397C14.3338 15.5196 14.3338 14.9974 14.6538 14.6605C14.9739 14.3236 15.4959 14.3404 15.8327 14.6605L21.9967 20.8263L28.1607 14.6605C28.4807 14.3404 29.0028 14.3404 29.3396 14.6605C29.6764 14.9806 29.6596 15.5028 29.3396 15.8397L23.1756 22.0056L29.3396 28.1714C29.6596 28.4915 29.6596 29.0137 29.3396 29.3506C29.1711 29.5191 28.9691 29.5865 28.7501 29.5865C28.5311 29.5865 28.329 29.5022 28.1606 29.3506L21.9966 23.1848L15.8326 29.3506C15.6641 29.5191 15.4621 29.5865 15.2431 29.5865C15.0241 29.5865 14.822 29.5022 14.6535 29.3506C14.3335 29.0305 14.3335 28.5083 14.6535 28.1714L20.8178 22.0056Z" fill="white"/>
<circle cx="21.9995" cy="21.9995" r="19.3448" stroke="white" stroke-width="0.758621"/>
</svg>
