<svg width="50" height="50" viewBox="0 0 50 50" fill="none" xmlns="http://www.w3.org/2000/svg">
<mask id="mask0_1616_3960" style="mask-type:alpha" maskUnits="userSpaceOnUse" x="0" y="0" width="50" height="50">
<rect x="0.853516" y="0.733398" width="48.9514" height="48.9705" fill="#C4C4C4"/>
</mask>
<g mask="url(#mask0_1616_3960)">
<path d="M48.8049 25.2186C48.8049 38.1895 38.2941 48.7038 25.3292 48.7038C12.3643 48.7038 1.85352 38.1895 1.85352 25.2186C1.85352 12.2477 12.3643 1.7334 25.3292 1.7334C38.2941 1.7334 48.8049 12.2477 48.8049 25.2186Z" stroke="white" stroke-width="2"/>
<path d="M34.6687 25.9767C34.4491 25.9767 34.2297 25.9767 34.0101 26.008L33.5398 24.1887C33.7594 24.1574 34.0101 24.1574 34.2297 24.1574H34.3865C35.7662 24.1574 37.1459 24.4712 38.3688 25.0985C38.745 25.2867 39.2154 25.1298 39.4035 24.7534C39.5916 24.3771 39.4348 23.9064 39.0586 23.7183C37.867 23.1222 36.5816 22.7772 35.2644 22.6518L34.7001 19.7347C34.4492 18.4172 33.2891 17.4762 31.9407 17.4762H31.6586L30.9687 14.7472C30.7806 13.9316 30.0595 13.3984 29.2441 13.3984H27.9899C27.551 13.3984 27.206 13.7435 27.206 14.1826C27.206 14.6218 27.551 14.9669 27.9899 14.9669H29.2441C29.3694 14.9669 29.4637 15.0609 29.495 15.155L30.0908 17.539H29.3696C28.617 17.539 27.8959 17.8212 27.3629 18.3545L26.14 19.5778H23.1297C22.6594 19.5778 22.1889 19.5466 21.6872 19.4838L14.3499 18.5427C14.2871 18.5427 14.2245 18.5114 14.1617 18.5114L11.1202 18.5111C10.6812 18.5111 10.3363 18.8562 10.3363 19.2954C10.3363 19.7345 10.6812 20.0796 11.1202 20.0796H13.4406V21.3657C13.4406 21.6795 13.6287 21.9618 13.9109 22.0871L19.5236 24.5026C20.3388 24.8476 20.9661 25.5064 21.311 26.3219L21.6872 27.2315L20.4331 27.9531C19.367 26.7298 17.8305 25.9455 16.0746 25.9455C12.9077 25.9768 10.3364 28.5491 10.3364 31.7173C10.3364 34.8855 12.9077 37.4891 16.1059 37.4891C19.2729 37.4891 21.8755 34.9168 21.8755 31.7173C21.8755 30.839 21.6559 29.992 21.3112 29.2393L22.2519 28.6433L22.4715 29.1765C22.7537 29.8666 23.4122 30.3058 24.1334 30.3058H26.7988C27.5827 30.3058 28.2725 29.8038 28.4919 29.0824L28.9621 27.6709C29.119 27.2317 29.0875 26.7298 28.8681 26.2906C28.6485 25.8515 28.2723 25.5377 27.8333 25.3811L25.7012 24.7222L25.1995 26.1965L27.3003 26.8866C27.3631 26.9179 27.4257 26.9494 27.4572 27.012C27.4884 27.0748 27.4884 27.1374 27.4572 27.2002L26.9869 28.6117C26.9556 28.7058 26.8616 28.7999 26.736 28.7999H24.0707C23.9766 28.7999 23.8826 28.7371 23.8198 28.643L23.2555 27.2315L22.6597 25.7258C22.1894 24.5338 21.2487 23.5614 20.0571 23.0594L14.9147 20.8637V20.2049L21.4995 21.0204C22.0325 21.0832 22.5655 21.1145 23.1301 21.1145H26.4537C26.6418 21.1145 26.8614 21.0204 26.9868 20.8948L28.4293 19.4517C28.6801 19.2008 28.9936 19.0754 29.3385 19.0754L31.9723 19.0758C32.5682 19.0758 33.1012 19.515 33.2265 20.111L33.7282 22.6833C32.4741 22.7774 31.2197 23.1852 30.1536 23.8439C29.8087 24.0635 29.6834 24.534 29.9027 24.9103C30.0596 25.13 30.3104 25.2554 30.5613 25.2554C30.6867 25.2554 30.8435 25.2241 30.969 25.13C31.314 24.9103 31.6902 24.7221 32.0666 24.5968L32.5369 26.4161C30.4048 27.2631 28.8995 29.3333 28.8995 31.7487C28.8995 34.9168 31.4708 37.5205 34.669 37.5205C37.8672 37.489 40.4385 34.9169 40.4385 31.7173C40.4385 28.5492 37.8672 25.9769 34.669 25.9769L34.6687 25.9767ZM20.3076 31.7172C20.3076 34.0385 18.4261 35.952 16.0744 35.952C13.754 35.952 11.8412 34.0698 11.8412 31.7172C11.8412 29.3958 13.7227 27.4823 16.0744 27.4823C17.266 27.4823 18.332 27.9843 19.1159 28.7685L15.7923 30.9014C15.4473 31.1211 15.322 31.6228 15.5727 31.9679C15.7295 32.1876 15.9804 32.3129 16.2312 32.3129C16.3881 32.3129 16.5134 32.2816 16.6389 32.1876L19.9626 30.0231C20.182 30.5878 20.3076 31.1526 20.3076 31.7171L20.3076 31.7172ZM34.6687 35.952C32.3483 35.952 30.4355 34.0698 30.4355 31.7172C30.4355 30.0234 31.439 28.549 32.9125 27.8902L33.916 31.7799C34.0101 32.125 34.3237 32.3445 34.6686 32.3445C34.7314 32.3445 34.794 32.3445 34.8567 32.3132C35.2644 32.2191 35.5153 31.7799 35.421 31.3721L34.4175 27.4823H34.6684C36.9888 27.4823 38.9016 29.3645 38.9016 31.7172C38.9016 34.0698 37.0203 35.952 34.6686 35.952L34.6687 35.952Z" fill="white"/>
</g>
</svg>
