<svg width="50" height="49" viewBox="0 0 50 49" fill="none" xmlns="http://www.w3.org/2000/svg">
<mask id="mask0_1616_3984" style="mask-type:alpha" maskUnits="userSpaceOnUse" x="0" y="0" width="50" height="49">
<rect x="0.632812" y="0.0283203" width="48.9514" height="48.9705" fill="#C4C4C4"/>
</mask>
<g mask="url(#mask0_1616_3984)">
<path d="M48.5842 24.5135C48.5842 37.4844 38.0734 47.9988 25.1085 47.9988C12.1436 47.9988 1.63281 37.4844 1.63281 24.5135C1.63281 11.5426 12.1436 1.02832 25.1085 1.02832C38.0734 1.02832 48.5842 11.5426 48.5842 24.5135Z" stroke="white" stroke-width="2"/>
<path d="M40.5519 22.0048C40.8292 21.5878 41.1442 21.116 41.1442 20.4549V18.4253C41.1442 18.1447 40.9169 17.918 40.637 17.918H26.9431C22.954 17.918 20.3741 19.5162 18.4903 20.6832C17.4456 21.3306 16.5437 21.8899 15.7291 21.98C10.926 22.5143 9.29973 26.1876 9.23249 26.3439C9.20509 26.4064 9.19151 26.4744 9.19151 26.5434V29.0803C8.91165 29.0803 8.68433 29.3071 8.68433 29.5877C8.68433 29.8684 8.91165 30.0951 9.19151 30.0951H13.3047C13.9452 30.7216 14.8201 31.1099 15.7849 31.1099C16.7494 31.1099 17.6239 30.7216 18.2651 30.0951H31.0559C31.6965 30.7216 32.5714 31.1099 33.5361 31.1099C34.5007 31.1099 35.3751 30.7216 36.0163 30.0951H36.5792C36.6005 30.0951 36.6213 30.0935 36.6422 30.091L39.6934 29.7096C40.5069 29.6074 41.1438 28.8855 41.1438 28.0656V27.0508C41.1438 26.8585 41.0354 26.6829 40.8633 26.5967L40.1295 26.2299V22.9918C40.1295 22.6382 40.3253 22.3449 40.5515 22.0048L40.5519 22.0048ZM28.4647 20.9622H29.4791C30.4799 20.9622 31.1593 21.4737 31.5855 21.977H28.4647V20.9622ZM15.7852 30.0951C14.3868 30.0951 13.2493 28.9571 13.2493 27.5582C13.2493 26.1593 14.3868 25.0213 15.7852 25.0213C17.1835 25.0213 18.3211 26.1593 18.3211 27.5582C18.3211 28.9571 17.1835 30.0951 15.7852 30.0951ZM18.9881 29.0803C19.2087 28.618 19.3354 28.1031 19.3354 27.5582C19.3354 25.6002 17.7428 24.0065 15.7852 24.0065C13.8276 24.0065 12.2349 25.6002 12.2349 27.5582C12.2349 28.1032 12.3617 28.618 12.5822 29.0803H10.2062V28.0656H10.7134C10.9932 28.0656 11.2206 27.8388 11.2206 27.5582C11.2206 27.2775 10.9932 27.0508 10.7134 27.0508H10.2062V26.656C10.4704 26.1183 11.9823 23.4173 15.8409 22.9886C16.8831 22.8724 17.8753 22.2579 19.0244 21.5455C20.9041 20.3817 23.2428 18.9327 26.9434 18.9327C27.0525 18.9327 27.1524 18.9372 27.2583 18.9388C27.6321 19.2752 27.9521 19.612 28.2183 19.9475H26.9433C23.8622 19.9475 21.8172 21.0334 20.1413 22.051C19.947 22.1688 19.8547 22.4021 19.916 22.6214C19.9776 22.84 20.1773 22.9917 20.4046 22.9917H29.0963C28.2762 26.4496 21.5257 28.8263 20.7744 29.0803L18.9881 29.0803ZM27.4502 20.9622V21.977H22.38C23.6155 21.3951 25.0574 20.9622 26.943 20.9622H27.4502ZM33.5364 30.0951C32.138 30.0951 31.0005 28.9571 31.0005 27.5582C31.0005 26.1593 32.138 25.0213 33.5364 25.0213C34.9348 25.0213 36.0723 26.1593 36.0723 27.5582C36.0723 28.9571 34.9348 30.0951 33.5364 30.0951ZM40.1298 28.0656C40.1298 28.3675 39.8671 28.6654 39.5678 28.7027L36.7514 29.0549C36.9644 28.5992 37.0867 28.0934 37.0867 27.5582C37.0867 25.6002 35.494 24.0065 33.5364 24.0065C31.5788 24.0065 29.9861 25.6002 29.9861 27.5582C29.9861 28.1032 30.1129 28.618 30.3335 29.0803H23.5158C26.0406 27.9321 29.6246 25.8311 30.1335 22.9918H32.5218C32.6977 22.9918 32.8605 22.9005 32.9533 22.7508C33.0462 22.6011 33.0543 22.4144 32.9757 22.257C32.2525 20.8109 30.9454 19.9475 29.4787 19.9475H29.4569C29.2627 19.6349 29.0324 19.323 28.7596 19.0118C32.2474 19.3269 33.7949 20.5462 35.1779 21.642C36.2815 22.5156 37.338 23.3367 39.1151 23.471V26.5434C39.1151 26.7357 39.2236 26.9112 39.3957 26.9975L40.1295 27.3643L40.1298 28.0656ZM39.7077 21.4418C39.511 21.7372 39.2975 22.0624 39.1888 22.4611C37.792 22.3546 36.9429 21.7417 35.9555 20.9622H38.1011C38.3809 20.9622 38.6083 20.7355 38.6083 20.4549C38.6083 20.1742 38.3809 19.9475 38.1011 19.9475H34.6126C34.0912 19.5887 33.4988 19.2392 32.7843 18.9327H40.13V20.4549C40.13 20.8084 39.9341 21.1018 39.7079 21.4418H39.7077Z" fill="white"/>
<path d="M15.785 26.0361C14.9461 26.0361 14.2634 26.719 14.2634 27.5583C14.2634 28.3975 14.9461 29.0804 15.785 29.0804C16.6239 29.0804 17.3065 28.3975 17.3065 27.5583C17.3065 26.719 16.6239 26.0361 15.785 26.0361ZM15.785 28.0657C15.5056 28.0657 15.2778 27.8382 15.2778 27.5583C15.2778 27.2783 15.5056 27.0509 15.785 27.0509C16.0644 27.0509 16.2922 27.2783 16.2922 27.5583C16.2922 27.8382 16.0644 28.0657 15.785 28.0657Z" fill="white"/>
<path d="M33.5364 26.0361C32.6975 26.0361 32.0149 26.719 32.0149 27.5583C32.0149 28.3975 32.6975 29.0804 33.5364 29.0804C34.3753 29.0804 35.058 28.3975 35.058 27.5583C35.058 26.719 34.3753 26.0361 33.5364 26.0361ZM33.5364 28.0657C33.257 28.0657 33.0293 27.8382 33.0293 27.5583C33.0293 27.2783 33.257 27.0509 33.5364 27.0509C33.8158 27.0509 34.0436 27.2783 34.0436 27.5583C34.0436 27.8382 33.8158 28.0657 33.5364 28.0657Z" fill="white"/>
</g>
</svg>
