<svg width="50" height="50" viewBox="0 0 50 50" fill="none" xmlns="http://www.w3.org/2000/svg">
<circle opacity="0.1" cx="25.2189" cy="24.6696" r="20.9841" transform="rotate(0.154683 25.2189 24.6696)" fill="white"/>
<mask id="mask0_1616_3889" style="mask-type:alpha" maskUnits="userSpaceOnUse" x="0" y="0" width="50" height="50">
<rect x="0.884766" y="0.204102" width="48.8002" height="48.8002" transform="rotate(0.154683 0.884766 0.204102)" fill="#C4C4C4"/>
</mask>
<g mask="url(#mask0_1616_3889)">
<path d="M33.7219 24.9891C33.7347 20.2438 29.9843 16.3868 25.3451 16.3742C20.7059 16.3617 16.9347 20.1984 16.9219 24.9438C16.9103 29.2323 19.9724 32.7953 23.9865 33.4507L24.0027 27.4466L21.8699 27.4408L21.8766 24.9571L24.0094 24.9629L24.0145 23.0699C24.0203 20.9165 25.2776 19.7304 27.1963 19.7356C28.1151 19.7381 29.0762 19.9085 29.0762 19.9085L29.0705 22.023L28.0113 22.0201C26.9678 22.0173 26.6406 22.6788 26.6387 23.3589L26.6344 24.97L28.9641 24.9763L28.5849 27.4589L26.6277 27.4537L26.6115 33.4578C30.629 32.824 33.7103 29.2777 33.7219 24.9891Z" fill="white"/>
</g>
</svg>
