<svg width="37" height="37" viewBox="0 0 37 37" fill="none" xmlns="http://www.w3.org/2000/svg">
<mask id="mask0_2501_3463" style="mask-type:alpha" maskUnits="userSpaceOnUse" x="-1" y="0" width="38" height="37">
<rect x="-0.000366211" width="37" height="37" fill="#C4C4C4"/>
</mask>
<g mask="url(#mask0_2501_3463)">
<path d="M15.6754 10.8447H14.3685C12.8141 10.8447 11.5425 12.1164 11.5425 13.6707V14.9776C11.5425 16.5319 12.8141 17.8036 14.3685 17.8036H15.6754C17.2297 17.8036 18.5014 16.5319 18.5014 14.9776V13.6707C18.5014 12.0812 17.2297 10.8447 15.6754 10.8447ZM17.0882 14.9776C17.0882 15.7548 16.4525 16.3905 15.6754 16.3905H14.3685C13.5913 16.3905 12.9556 15.7548 12.9556 14.9776V13.6707C12.9556 12.8936 13.5913 12.2579 14.3685 12.2579H15.6754C16.4525 12.2579 17.0882 12.8936 17.0882 13.6707V14.9776Z" fill="#242A3A"/>
<path d="M8.99914 15.0134H9.9175C10.3061 15.0134 10.6239 14.6956 10.6239 14.307C10.6239 13.9184 10.3061 13.6006 9.9175 13.6006H8.99914C8.61056 13.6006 8.29272 13.9184 8.29272 14.307C8.29272 14.6953 8.61058 15.0134 8.99914 15.0134Z" fill="#242A3A"/>
<path d="M20.0908 15.0127H28.4273C28.8158 15.0127 29.1337 14.6948 29.1337 14.3063C29.1337 13.9177 28.8158 13.5999 28.4273 13.5999L20.0908 13.5996C19.7022 13.5996 19.3844 13.9175 19.3844 14.306C19.3844 14.6946 19.7023 15.0127 20.0908 15.0127V15.0127Z" fill="#242A3A"/>
<path d="M23.0581 19.1455H21.7511C20.1968 19.1455 18.9252 20.4172 18.9252 21.9715V23.2784C18.9252 24.8327 20.1968 26.1044 21.7511 26.1044H23.0581C24.6124 26.1044 25.884 24.8327 25.884 23.2784V21.9715C25.884 20.4172 24.6124 19.1455 23.0581 19.1455ZM24.4712 23.2784C24.4712 24.0555 23.8354 24.6912 23.0583 24.6912H21.7514C20.9743 24.6912 20.3386 24.0555 20.3386 23.2784V21.9715C20.3386 21.1944 20.9743 20.5587 21.7514 20.5587H23.0583C23.8354 20.5587 24.4712 21.1944 24.4712 21.9715V23.2784Z" fill="#242A3A"/>
<path d="M28.4273 21.9365H27.509C27.1204 21.9365 26.8026 22.2544 26.8026 22.6429C26.8026 23.0315 27.1204 23.3494 27.509 23.3494H28.4273C28.8159 23.3494 29.1337 23.0315 29.1337 22.6429C29.1337 22.2546 28.8159 21.9365 28.4273 21.9365Z" fill="#242A3A"/>
<path d="M17.3356 21.9365H8.99914C8.61056 21.9365 8.29272 22.2544 8.29272 22.6429C8.29272 23.0315 8.61058 23.3494 8.99914 23.3494H17.3356C17.7242 23.3494 18.042 23.0315 18.042 22.6429C18.042 22.2546 17.7241 21.9365 17.3356 21.9365Z" fill="#242A3A"/>
</g>
</svg>
