<svg width="49" height="49" viewBox="0 0 49 49" fill="none" xmlns="http://www.w3.org/2000/svg">
<circle opacity="0.1" cx="24.4659" cy="24.4655" r="20.9841" transform="rotate(0.154683 24.4659 24.4655)" fill="white"/>
<mask id="mask0_1616_3888" style="mask-type:alpha" maskUnits="userSpaceOnUse" x="0" y="0" width="49" height="49">
<rect x="0.131836" width="48.8002" height="48.8002" transform="rotate(0.154683 0.131836 0)" fill="#C4C4C4"/>
</mask>
<g mask="url(#mask0_1616_3888)">
<path d="M30.2974 24.4352C30.2932 25.9945 29.6698 27.4882 28.5642 28.5877C27.4588 29.6874 25.9617 30.3026 24.4025 30.2984C22.8432 30.2942 21.3495 29.6708 20.25 28.5652C19.1503 27.4598 18.5351 25.9627 18.5393 24.4035C18.5435 22.8442 19.1669 21.3505 20.2725 20.251C21.3779 19.1513 22.875 18.5361 24.4342 18.5403C25.9926 18.5473 27.4846 19.1716 28.5836 20.2765C29.6826 21.3815 30.2988 22.8769 30.2974 24.4352ZM36.7902 19.1941L36.7618 29.7113C36.7546 31.5933 36.0011 33.3959 34.6666 34.7232C33.3321 36.0504 31.5256 36.7942 29.6435 36.7912L19.1264 36.7628C17.2443 36.7556 15.4417 36.0021 14.1145 34.6677C12.7873 33.3332 12.0435 31.5266 12.0464 29.6446L12.0748 19.1274C12.082 17.2454 12.8355 15.4428 14.17 14.1156C15.5045 12.7883 17.311 12.0445 19.1931 12.0475L29.7103 12.0759C31.5923 12.0831 33.3949 12.8366 34.7221 14.171C36.0493 15.5055 36.7932 17.3121 36.7902 19.1941ZM35.2126 19.1899C35.2149 17.7259 34.6365 16.321 33.604 15.2831C32.5718 14.245 31.17 13.659 29.706 13.6535L19.1888 13.6251C17.7249 13.6228 16.3199 14.2012 15.282 15.2336C14.2439 16.2659 13.658 17.6677 13.6524 19.1317L13.624 29.6488C13.6217 31.1128 14.2001 32.5178 15.2326 33.5556C16.2649 34.5937 17.6666 35.1797 19.1306 35.1853L29.6478 35.2137C31.1117 35.216 32.5167 34.6375 33.5546 33.6051C34.5927 32.5728 35.1786 31.171 35.1842 29.707L35.2126 19.1899ZM32.7159 16.8745C32.683 16.7955 32.6428 16.7196 32.5953 16.6481C32.5458 16.5778 32.4915 16.511 32.433 16.4479C32.3702 16.3888 32.3034 16.3342 32.2332 16.2844C32.1622 16.2366 32.0867 16.1958 32.0079 16.1627C31.9277 16.131 31.8451 16.1061 31.7609 16.0885C31.5903 16.0566 31.4156 16.0562 31.2449 16.0871C31.1606 16.1034 31.0779 16.1278 30.9982 16.16C30.919 16.1926 30.843 16.233 30.7718 16.2805C30.7003 16.3287 30.6332 16.3829 30.5713 16.4429C30.5125 16.5054 30.4578 16.5721 30.4079 16.6422C30.3603 16.7134 30.3194 16.7892 30.2864 16.8679C30.2538 16.9479 30.2286 17.0305 30.2115 17.115C30.1768 17.2851 30.1763 17.4602 30.2101 17.6302C30.2268 17.7148 30.2515 17.7977 30.2836 17.8776C30.3163 17.9568 30.3567 18.0328 30.4039 18.104C30.4535 18.1746 30.5078 18.2414 30.5663 18.3045C30.6279 18.3648 30.6946 18.4194 30.7659 18.468C30.8369 18.5158 30.9126 18.5564 30.9916 18.5895C31.0711 18.6221 31.1537 18.6469 31.2379 18.6638C31.408 18.6993 31.5836 18.6998 31.7539 18.6652C31.8382 18.6481 31.9209 18.6237 32.0013 18.5922C32.0803 18.5595 32.156 18.5194 32.2272 18.4719C32.2978 18.4223 32.3649 18.368 32.4279 18.3095C32.4868 18.2468 32.5414 18.18 32.5914 18.1099C32.688 17.9672 32.7547 17.8064 32.7873 17.6372C32.823 17.4673 32.8234 17.292 32.7887 17.1219C32.7725 17.0374 32.748 16.9544 32.7159 16.8745Z" fill="white"/>
</g>
</svg>
