<svg width="50" height="50" viewBox="0 0 50 50" fill="none" xmlns="http://www.w3.org/2000/svg">
<mask id="mask0_1616_3936" style="mask-type:alpha" maskUnits="userSpaceOnUse" x="0" y="0" width="50" height="50">
<rect x="0.632812" y="0.4375" width="48.9514" height="48.9705" fill="#C4C4C4"/>
</mask>
<g mask="url(#mask0_1616_3936)">
<path d="M48.5842 24.9227C48.5842 37.8936 38.0734 48.408 25.1085 48.408C12.1436 48.408 1.63281 37.8936 1.63281 24.9227C1.63281 11.9518 12.1436 1.4375 25.1085 1.4375C38.0734 1.4375 48.5842 11.9518 48.5842 24.9227Z" stroke="white" stroke-width="2"/>
<path d="M38.393 37.1771L35.435 26.819V26.8188C35.3849 26.6436 35.279 26.4897 35.1338 26.38C34.9884 26.2703 34.8111 26.2109 34.6291 26.2109H24.2751C23.9758 26.2109 23.699 26.3707 23.5493 26.6302C23.3995 26.8896 23.3995 27.2092 23.5493 27.4686C23.699 27.728 23.9758 27.8878 24.2751 27.8878H33.997L36.4763 36.569H13.5537L16.0329 27.8878H18.3589C18.6582 27.8878 18.935 27.728 19.0847 27.4686C19.2345 27.2092 19.2345 26.8896 19.0847 26.6302C18.935 26.3707 18.6582 26.2109 18.3589 26.2109H15.4007C15.2186 26.2109 15.0414 26.2703 14.8959 26.38C14.7507 26.4897 14.6448 26.6436 14.5948 26.8188L11.6367 37.1769V37.1771C11.5645 37.4299 11.6151 37.7022 11.7735 37.9124C11.9318 38.1225 12.1796 38.2459 12.4427 38.2461H37.5873C37.8504 38.2459 38.0982 38.1225 38.2564 37.9124C38.4149 37.7022 38.4654 37.43 38.3932 37.1771H38.393Z" fill="white"/>
<path d="M21.3171 32.3273C21.5394 32.3273 21.7526 32.2388 21.9098 32.0815C22.0671 31.9243 22.1553 31.7112 22.1553 31.4886V20.4897H33.8897C34.112 20.4897 34.3252 20.4012 34.4824 20.2441C34.6397 20.0869 34.7278 19.8736 34.7278 19.6512C34.7278 19.4289 34.6397 19.2156 34.4824 19.0583L32.1165 16.6916L34.4824 14.3251C34.6397 14.1679 34.7278 13.9546 34.7278 13.7322C34.7278 13.5099 34.6397 13.2966 34.4824 13.1393C34.3252 12.9822 34.112 12.8938 33.8897 12.8938H22.1553V12.2526C22.1553 11.953 21.9955 11.6761 21.7362 11.5263C21.4769 11.3766 21.1574 11.3766 20.8981 11.5263C20.6388 11.676 20.479 11.9529 20.479 12.2526V31.4885C20.479 31.711 20.5672 31.9241 20.7244 32.0814C20.8816 32.2387 21.0949 32.3271 21.3171 32.3271L21.3171 32.3273ZM31.8657 14.5705L30.3382 16.0985C30.181 16.2556 30.0928 16.4689 30.0928 16.6912C30.0928 16.9136 30.181 17.1269 30.3382 17.2842L31.866 18.8126L22.1548 18.8124V14.5705L31.8657 14.5705Z" fill="white"/>
</g>
</svg>
