<svg width="50" height="50" viewBox="0 0 50 50" fill="none" xmlns="http://www.w3.org/2000/svg">
<circle opacity="0.1" cx="24.7247" cy="25.0787" r="20.9841" transform="rotate(0.154683 24.7247 25.0787)" fill="white"/>
<mask id="mask0_1616_3891" style="mask-type:alpha" maskUnits="userSpaceOnUse" x="0" y="0" width="50" height="50">
<rect x="0.390625" y="0.613281" width="48.8002" height="48.8002" transform="rotate(0.154683 0.390625 0.613281)" fill="#C4C4C4"/>
</mask>
<g mask="url(#mask0_1616_3891)">
<path d="M18.9826 16.7672C17.8543 16.7642 16.9365 17.6791 16.9334 18.8118C16.9304 19.9445 17.8424 20.8856 18.9699 20.8886C20.0974 20.8917 21.0161 19.9555 21.0191 18.8228C21.0222 17.6909 20.1109 16.7703 18.9826 16.7672ZM28.9381 22.2287C27.2221 22.2241 26.2378 23.1223 25.7644 24.017L25.7146 24.0169L25.7188 22.4611L22.337 22.452L22.3062 33.8563L25.83 33.8658L25.8452 28.2205C25.8492 26.733 25.965 25.2958 27.7985 25.3008C29.6058 25.3057 29.6276 27.0018 29.624 28.3247L29.6091 33.876L33.1283 33.8856L33.1329 33.8856L33.1498 27.6216C33.158 24.5565 32.5079 22.2383 28.9381 22.2287ZM17.2046 22.4381L17.1738 33.8425L20.7006 33.852L20.7314 22.4476L17.2046 22.4381Z" fill="white"/>
</g>
</svg>
