<svg width="27" height="21" viewBox="0 0 27 21" fill="none" xmlns="http://www.w3.org/2000/svg">
<mask id="mask0_1616_3951" style="mask-type:alpha" maskUnits="userSpaceOnUse" x="0" y="0" width="27" height="21">
<rect x="0.123291" y="0.68457" width="26.8102" height="20.2636" fill="#C4C4C4"/>
</mask>
<g mask="url(#mask0_1616_3951)">
<path d="M17.9959 11.2144C17.9901 11.4035 17.8917 11.5842 17.7197 11.7214L11.6587 16.4934C11.4075 16.6895 11.0372 16.7698 10.6866 16.704C10.336 16.6381 10.0584 16.4362 9.95783 16.1739C9.85724 15.9118 9.94902 15.629 10.1988 15.4317L15.5888 11.1904L10.1988 6.94921C9.94902 6.75188 9.85725 6.46908 9.95783 6.20693C10.0584 5.94463 10.336 5.74279 10.6866 5.67687C11.0372 5.6111 11.4074 5.69138 11.6587 5.88751L17.7197 10.6594C17.907 10.8087 18.0065 11.0087 17.9959 11.2141V11.2144Z" fill="white"/>
</g>
</svg>
