<svg width="44" height="43" viewBox="0 0 44 43" fill="none" xmlns="http://www.w3.org/2000/svg">
<mask id="mask0_1616_3903" style="mask-type:alpha" maskUnits="userSpaceOnUse" x="0" y="0" width="44" height="43">
<rect x="0.974121" width="42.3348" height="42.3669" fill="#C4C4C4"/>
</mask>
<g mask="url(#mask0_1616_3903)">
<path fill-rule="evenodd" clip-rule="evenodd" d="M19.9013 8.82521C14.3365 8.82521 9.79419 13.3619 9.79419 18.931C9.79419 24.5001 14.3362 29.0459 19.9013 29.0459C22.2804 29.0459 24.468 28.2102 26.1967 26.8239L32.5686 33.2094C32.8528 33.4939 33.2671 33.605 33.6555 33.5008C34.0438 33.3968 34.347 33.0932 34.4511 32.7045C34.5552 32.3161 34.4442 31.9013 34.1599 31.6168L27.7837 25.2356C29.168 23.5039 30.002 21.3127 30.002 18.931C30.002 13.3619 25.4666 8.8252 19.9016 8.8252L19.9013 8.82521ZM19.9013 11.0713C24.2533 11.0713 27.755 14.5758 27.755 18.9312C27.755 23.2866 24.2533 26.7997 19.9013 26.7997C15.5492 26.7997 12.0389 23.2867 12.0389 18.9312C12.0389 14.5758 15.5492 11.0713 19.9013 11.0713ZM16.7032 14.6295C16.4126 14.6387 16.1366 14.7606 15.9339 14.9695C13.7518 17.1532 13.752 20.7201 15.9339 22.9039C16.1373 23.1416 16.4306 23.2836 16.743 23.2956C17.0555 23.3078 17.3589 23.1888 17.5798 22.9675C17.801 22.7462 17.9199 22.4427 17.9079 22.13C17.8958 21.8174 17.754 21.5238 17.5165 21.3202C16.1922 19.9951 16.1922 17.8786 17.5165 16.5534C17.7316 16.3417 17.8524 16.0522 17.8519 15.7502C17.8511 15.448 17.729 15.159 17.5129 14.9483C17.2967 14.7375 17.0049 14.6226 16.7032 14.6298L16.7032 14.6295Z" fill="black"/>
</g>
</svg>
