<svg width="47" height="47" viewBox="0 0 47 47" fill="none" xmlns="http://www.w3.org/2000/svg">
<mask id="mask0_1616_3912" style="mask-type:alpha" maskUnits="userSpaceOnUse" x="0" y="0" width="47" height="47">
<rect width="47" height="47" fill="#C4C4C4"/>
</mask>
<g mask="url(#mask0_1616_3912)">
<path d="M32.1437 31.1528H14.8563C14.4703 31.1528 14.1137 30.9468 13.9206 30.6126C13.7276 30.2783 13.7276 29.8664 13.9206 29.5321C14.1137 29.1978 14.4703 28.9919 14.8563 28.9919H32.1437C32.5297 28.9919 32.8864 29.1978 33.0794 29.5321C33.2724 29.8664 33.2724 30.2783 33.0794 30.6126C32.8863 30.9468 32.5297 31.1528 32.1437 31.1528ZM33.2242 23.5896C33.2242 23.3031 33.1103 23.0281 32.9077 22.8256C32.7051 22.623 32.4302 22.5091 32.1437 22.5091H19.1782C18.7921 22.5091 18.4355 22.7151 18.2424 23.0494C18.0495 23.3836 18.0495 23.7956 18.2424 24.1298C18.4355 24.4641 18.7921 24.6701 19.1782 24.6701H32.1437C32.4302 24.6701 32.7052 24.5562 32.9077 24.3536C33.1103 24.151 33.2242 23.8761 33.2242 23.5896V23.5896ZM33.2242 17.1068C33.2242 16.8203 33.1103 16.5453 32.9077 16.3428C32.7051 16.1402 32.4302 16.0264 32.1437 16.0264H23.5C23.114 16.0264 22.7574 16.2323 22.5643 16.5666C22.3714 16.9009 22.3714 17.3128 22.5643 17.6471C22.7574 17.9813 23.114 18.1873 23.5 18.1873H32.1437C32.4302 18.1873 32.7052 18.0735 32.9077 17.8709C33.1103 17.6683 33.2242 17.3933 33.2242 17.1068V17.1068Z" fill="white"/>
<circle cx="23.5" cy="23.5" r="22.6897" stroke="white" stroke-width="1.62069"/>
</g>
</svg>
