<svg width="50" height="49" viewBox="0 0 50 49" fill="none" xmlns="http://www.w3.org/2000/svg">
<mask id="mask0_1616_3968" style="mask-type:alpha" maskUnits="userSpaceOnUse" x="0" y="0" width="50" height="49">
<rect x="0.853516" y="0.0283203" width="48.9514" height="48.9705" fill="#C4C4C4"/>
</mask>
<g mask="url(#mask0_1616_3968)">
<path d="M32.8771 23.4013L34.2983 27.667C34.5649 28.3779 33.4101 28.7334 33.1435 28.0225L31.7222 23.7567C30.212 24.5566 29.235 26.0672 29.235 27.8445C29.235 30.3327 31.2782 32.2879 33.7654 32.2879C37.7629 32.2879 39.717 27.4003 36.9633 24.6456C35.8973 23.5792 34.3871 23.1348 32.8771 23.4015L32.8771 23.4013ZM27.1917 16.9142C26.6587 16.381 27.4583 15.4924 28.08 16.1143C28.1689 16.292 28.3466 16.292 28.613 16.292H30.0342C30.3008 16.292 30.5672 16.4697 30.6561 16.7364C31.278 18.6027 31.8997 20.4687 32.5216 22.2465C34.3871 21.891 36.3414 22.4242 37.7627 23.846C41.3159 27.3119 38.8287 33.5323 33.7653 33.5323C30.6561 33.5323 28.0799 30.9551 28.0799 27.8447C28.0799 25.623 29.3235 23.579 31.3667 22.6904L30.9225 21.2686L24.0824 28.2001C23.9934 28.2891 23.8158 28.3778 23.6381 28.3778H21.7726C21.506 31.3105 19.0188 33.5322 16.176 33.5322C12.9781 33.5322 10.4906 30.955 10.4906 27.8446C10.4906 23.8456 14.4881 21.0906 18.2186 22.5127L20.1729 18.7803L19.4623 16.3809H18.3074C17.5078 16.3809 17.5078 15.2256 18.3074 15.2256H21.5053C22.3048 15.2256 22.3048 16.3809 21.5053 16.3809H20.7057L21.2387 18.2471H29.8552L29.5886 17.4472H28.6114C28.0784 17.4472 27.5454 17.2695 27.1901 16.9141L27.1917 16.9142ZM20.7071 20.38L19.2859 23.0459C20.7071 24.0235 21.5955 25.5341 21.7731 27.2226H22.8391L20.7071 20.38ZM18.7529 24.1123L17.1539 27.2226H20.6184C20.4407 25.9785 19.7301 24.8232 18.7529 24.1123ZM20.6184 28.378H16.1767C15.7324 28.378 15.3771 27.9336 15.6437 27.5781L17.6869 23.5791C14.7554 22.5127 11.646 24.7344 11.646 27.8448C11.646 30.333 13.6892 32.2883 16.1765 32.2883C18.3973 32.2883 20.2626 30.6887 20.6182 28.3782L20.6184 28.378ZM30.3009 19.4025H21.5956L23.9052 26.6897L30.4791 20.025L30.3009 19.4025Z" fill="white"/>
<path d="M48.8049 24.5135C48.8049 37.4844 38.2941 47.9988 25.3292 47.9988C12.3643 47.9988 1.85352 37.4844 1.85352 24.5135C1.85352 11.5426 12.3643 1.02832 25.3292 1.02832C38.2941 1.02832 48.8049 11.5426 48.8049 24.5135Z" stroke="white" stroke-width="2"/>
</g>
</svg>
