<svg width="50" height="50" viewBox="0 0 50 50" fill="none" xmlns="http://www.w3.org/2000/svg">
<mask id="mask0_1616_3952" style="mask-type:alpha" maskUnits="userSpaceOnUse" x="0" y="0" width="50" height="50">
<rect x="0.853516" y="0.4375" width="48.9514" height="48.9705" fill="#C4C4C4"/>
</mask>
<g mask="url(#mask0_1616_3952)">
<path d="M48.8049 24.9227C48.8049 37.8936 38.2941 48.408 25.3292 48.408C12.3643 48.408 1.85352 37.8936 1.85352 24.9227C1.85352 11.9518 12.3643 1.4375 25.3292 1.4375C38.2941 1.4375 48.8049 11.9518 48.8049 24.9227Z" stroke="white" stroke-width="2"/>
<path d="M37.1554 19.0064C37.1554 12.4922 31.8577 7.19238 25.346 7.19238C18.8344 7.19238 13.5366 12.4921 13.5366 19.0064L13.5467 19.9398L13.5133 19.9631L22.4413 32.7382L22.9833 34.8628L23.0807 35.2684C23.0824 35.2747 23.0867 35.2777 23.0887 35.2837C23.1043 35.3626 23.1327 35.4395 23.1891 35.5047L24.0596 36.5039C24.0801 36.5272 24.1066 36.5395 24.1302 36.5581V37.8257C24.1302 37.8276 24.1291 37.8295 24.1291 37.8317V41.9607C24.1291 42.2321 24.3508 42.4542 24.6223 42.4542H24.6226C24.8939 42.4542 25.1159 42.2324 25.1159 41.9607V39.5354H25.5546V41.9237C25.5546 42.1951 25.7764 42.4172 26.0479 42.4172H26.0482C26.3194 42.4172 26.5414 42.1954 26.5414 41.9237V37.7933C26.5414 37.7826 26.5359 37.7733 26.5351 37.7632V36.5638C26.5617 36.5438 26.592 36.5288 26.6148 36.503L27.4852 35.5038C27.5416 35.4389 27.5701 35.362 27.5857 35.2828C27.5873 35.2768 27.592 35.2738 27.5936 35.2675L27.691 34.862L28.0819 33.3285L37.1185 20.0859L36.8708 19.9167L37.1448 20.0489L37.1554 19.0064ZM35.937 18.0619C35.2943 17.6788 34.5903 17.3081 33.889 17.3081C33.1861 17.3081 32.6093 17.6799 32.1007 18.008C31.8708 18.1564 31.6483 18.298 31.4339 18.3952C31.0636 14.1021 29.9008 10.6729 28.2982 8.78792C32.4379 9.98649 35.5458 13.6396 35.9368 18.0615L35.937 18.0619ZM29.9622 18.0244C29.8932 17.9748 29.8226 17.9247 29.7506 17.8749C29.3342 17.5852 28.8645 17.3083 28.2878 17.3083C27.5849 17.3083 27.0081 17.6802 26.4993 18.0083C26.0909 18.2717 25.7055 18.5206 25.3492 18.5206C25.0513 18.5206 24.7163 18.2799 24.361 18.0247C23.8932 17.689 23.3627 17.3083 22.6861 17.3083C21.9832 17.3083 21.4064 17.6802 20.8976 18.0082C20.8941 18.0107 20.8905 18.0126 20.8878 18.0148C20.743 18.1079 20.6009 18.1994 20.4621 18.2782C20.4583 18.2801 20.4542 18.2829 20.4506 18.2848C20.9891 12.6598 23.0742 8.37053 25.3464 8.37053C27.6099 8.37053 29.6877 12.6255 30.2346 18.2161C30.2335 18.2153 30.2318 18.2145 30.2307 18.2136C30.1426 18.1539 30.0534 18.0896 29.9622 18.0244L29.9622 18.0244ZM22.3943 8.78869C20.7963 10.6688 19.636 14.0843 19.2618 18.3602C19.1009 18.269 18.9331 18.1491 18.7606 18.025C18.2928 17.6893 17.7624 17.3087 17.0857 17.3087C16.2079 17.3087 15.493 17.7221 14.8623 18.0861C14.824 18.1085 14.7862 18.1302 14.7485 18.1521C15.1048 13.6898 18.227 9.99591 22.3941 8.78878L22.3943 8.78869ZM14.6512 19.5351C14.9301 19.4058 15.194 19.2544 15.451 19.1057C16.0023 18.787 16.5232 18.4863 17.0854 18.4863C17.3832 18.4863 17.7183 18.727 18.0736 18.9822C18.5135 19.2982 19.0105 19.6492 19.6308 19.6908L21.6361 29.5301L14.6512 19.5351ZM23.938 34.908L23.9109 34.7974L20.7803 19.4399C20.8014 19.43 20.8211 19.419 20.8419 19.4092C20.8761 19.3919 20.9109 19.3755 20.9443 19.3574C20.9831 19.3366 21.0209 19.315 21.059 19.2931C21.0888 19.2758 21.1195 19.2594 21.1487 19.2422C21.2057 19.2085 21.2601 19.1742 21.3152 19.14C21.3242 19.1337 21.3343 19.1282 21.3434 19.1222C21.4085 19.0809 21.4728 19.0395 21.5361 18.999C21.8421 18.8016 22.1361 18.6124 22.4139 18.5299C22.5064 18.5025 22.5975 18.4872 22.6862 18.4872C22.984 18.4872 23.3191 18.7279 23.6744 18.9831C24.1422 19.3188 24.6726 19.6995 25.3493 19.6995C26.0516 19.6995 26.6287 19.3276 27.137 18.9996C27.5459 18.7361 27.9316 18.4872 28.288 18.4872C28.3468 18.4872 28.4076 18.4987 28.4692 18.516C28.6101 18.5551 28.7577 18.6321 28.911 18.7304C29.0298 18.8065 29.151 18.8936 29.2758 18.9831C29.3697 19.0508 29.4674 19.1198 29.5674 19.1877C29.5873 19.2014 29.6073 19.2151 29.6279 19.229C29.6602 19.2501 29.6933 19.2704 29.7264 19.2912C29.7565 19.3101 29.7861 19.3295 29.817 19.3481C29.8507 19.3681 29.8857 19.3865 29.9202 19.4054C29.9511 19.4224 29.9823 19.4399 30.0141 19.456C30.0464 19.4725 30.0792 19.4867 30.1121 19.502L26.7308 34.915L26.5268 35.1494H24.1468L23.938 34.908ZM31.2795 19.6683C31.836 19.5768 32.3112 19.2737 32.7377 18.9985C33.1461 18.735 33.532 18.4861 33.8881 18.4861C34.3696 18.4861 35.0345 18.8906 35.6206 19.2473C35.7796 19.344 35.9312 19.4341 36.0785 19.5187L29.0544 29.8136L31.2795 19.6683Z" fill="white"/>
<path d="M25.3203 34.5818C25.8825 34.5818 26.3412 34.1234 26.3412 33.5604C26.3412 32.998 25.8825 32.5391 25.3203 32.5391C24.7581 32.5391 24.2993 32.998 24.2993 33.5604C24.2996 34.1234 24.7584 34.5818 25.3203 34.5818Z" fill="white"/>
</g>
</svg>
