<svg width="22" height="22" viewBox="0 0 22 22" fill="none" xmlns="http://www.w3.org/2000/svg">
<mask id="mask0_1696_3499" style="mask-type:alpha" maskUnits="userSpaceOnUse" x="0" y="0" width="22" height="22">
<rect width="22" height="22" fill="#C4C4C4"/>
</mask>
<g mask="url(#mask0_1696_3499)">
<path fill-rule="evenodd" clip-rule="evenodd" d="M9.83654 4.58399C6.9447 4.58399 4.58423 6.93976 4.58423 9.83166C4.58423 12.7236 6.94455 15.0841 9.83654 15.0841C11.0729 15.0841 12.2097 14.6501 13.1081 13.9302L16.4193 17.246C16.567 17.3938 16.7823 17.4515 16.9841 17.3974C17.1859 17.3434 17.3435 17.1857 17.3976 16.9839C17.4517 16.7822 17.394 16.5668 17.2463 16.419L13.9328 13.1055C14.6521 12.2062 15.0855 11.0684 15.0855 9.83165C15.0855 6.93975 12.7287 4.58398 9.83673 4.58398L9.83654 4.58399ZM9.83654 5.75035C12.0981 5.75035 13.9179 7.5701 13.9179 9.83176C13.9179 12.0934 12.0982 13.9177 9.83654 13.9177C7.57493 13.9177 5.75072 12.0934 5.75072 9.83176C5.75072 7.57013 7.5749 5.75035 9.83654 5.75035ZM8.17462 7.59802C8.02358 7.60281 7.88016 7.66607 7.77481 7.77455C6.64089 8.90849 6.64099 10.7607 7.77481 11.8947C7.88055 12.0181 8.03295 12.0918 8.19531 12.0981C8.35768 12.1044 8.51537 12.0426 8.63017 11.9277C8.74508 11.8128 8.80688 11.6552 8.80064 11.4928C8.79439 11.3305 8.72067 11.1781 8.59726 11.0723C7.90904 10.3842 7.90904 9.28519 8.59726 8.59706C8.70906 8.48712 8.77183 8.33676 8.77154 8.17995C8.77115 8.02305 8.70769 7.87298 8.59541 7.76353C8.48303 7.65408 8.33142 7.59443 8.1746 7.59814L8.17462 7.59802Z" fill="white"/>
</g>
</svg>
