<svg width="50" height="50" viewBox="0 0 50 50" fill="none" xmlns="http://www.w3.org/2000/svg">
<circle opacity="0.1" cx="24.9718" cy="24.8737" r="20.9841" transform="rotate(0.154683 24.9718 24.8737)" fill="white"/>
<mask id="mask0_1616_3890" style="mask-type:alpha" maskUnits="userSpaceOnUse" x="0" y="0" width="50" height="50">
<rect x="0.637695" y="0.408203" width="48.8002" height="48.8002" transform="rotate(0.154683 0.637695 0.408203)" fill="#C4C4C4"/>
</mask>
<g mask="url(#mask0_1616_3890)">
<path d="M21.5122 32.673C28.5082 32.6919 32.3515 26.8815 32.3651 21.8352C32.3655 21.6716 32.3624 21.5043 32.3556 21.3407C33.1016 20.802 33.746 20.1341 34.2584 19.3683C33.5641 19.6762 32.8273 19.8765 32.0732 19.9624C32.8683 19.4868 33.4647 18.7379 33.7518 17.8545C33.0038 18.2969 32.1863 18.6081 31.3342 18.7749C30.7621 18.1613 30.0046 17.7539 29.1787 17.6159C28.3529 17.4779 27.5047 17.6168 26.7654 18.0113C26.0261 18.4057 25.4368 19.0337 25.0886 19.7982C24.7404 20.5626 24.6527 21.4209 24.8391 22.2404C23.3272 22.1601 21.849 21.7617 20.5002 21.0711C19.1515 20.3804 17.9624 19.4129 17.01 18.2312C16.5221 19.0706 16.3708 20.065 16.5868 21.0124C16.8029 21.9598 17.3702 22.789 18.1733 23.3315C17.5693 23.3106 16.979 23.1457 16.451 22.8505L16.4509 22.8977C16.4479 23.78 16.7494 24.6361 17.3041 25.3204C17.8587 26.0047 18.6323 26.4751 19.4933 26.6515C18.9333 26.8037 18.3459 26.8245 17.7767 26.7123C18.0177 27.4717 18.4889 28.1366 19.1244 28.6142C19.76 29.0918 20.5282 29.3583 21.3218 29.3765C19.9715 30.4355 18.3054 31.0075 16.592 31.0001C16.2881 30.9988 15.9846 30.9793 15.683 30.9416C17.4207 32.0676 19.444 32.6686 21.5122 32.673Z" fill="white"/>
</g>
</svg>
