<svg width="50" height="50" viewBox="0 0 50 50" fill="none" xmlns="http://www.w3.org/2000/svg">
<mask id="mask0_1616_3976" style="mask-type:alpha" maskUnits="userSpaceOnUse" x="0" y="0" width="50" height="50">
<rect x="0.632812" y="0.733398" width="48.9514" height="48.9705" fill="#C4C4C4"/>
</mask>
<g mask="url(#mask0_1616_3976)">
<path d="M48.5842 25.2186C48.5842 38.1895 38.0734 48.7038 25.1085 48.7038C12.1436 48.7038 1.63281 38.1895 1.63281 25.2186C1.63281 12.2477 12.1436 1.7334 25.1085 1.7334C38.0734 1.7334 48.5842 12.2477 48.5842 25.2186Z" stroke="white" stroke-width="2"/>
<path d="M19.8763 16.6914C18.6492 16.6914 11.6047 24.0837 11.6047 29.1036C11.6047 32.0598 13.1813 34.7916 15.7405 36.2695C18.2997 37.7479 21.4529 37.7479 24.0121 36.2695C26.5713 34.7914 28.1479 32.0596 28.1479 29.1036C28.1479 24.0835 21.1034 16.6914 19.8763 16.6914ZM19.8763 35.9994C18.0482 35.9994 16.2949 35.2729 15.0022 33.9797C13.7096 32.6865 12.9833 30.9325 12.9833 29.1037C12.9833 25.0076 18.594 19.0912 19.8764 18.1532C21.1585 19.091 26.769 25.0071 26.769 29.1037C26.769 30.9325 26.0429 32.6865 24.7503 33.9797C23.4576 35.2729 21.7043 35.9994 19.8762 35.9994H19.8763Z" fill="white"/>
<path d="M33.662 12.5537C32.3869 12.5537 28.1477 17.1462 28.1477 20.8285C28.1477 22.7993 29.1987 24.6205 30.9047 25.6059C32.611 26.5913 34.713 26.5913 36.4193 25.6059C38.1253 24.6205 39.1763 22.7993 39.1763 20.8285C39.1763 17.1462 34.9371 12.5537 33.662 12.5537ZM33.662 24.9659C32.5651 24.9659 31.5131 24.53 30.7376 23.754C29.962 22.9782 29.5262 21.9259 29.5262 20.8285C29.5262 17.9667 32.7522 14.5462 33.662 13.9811C34.5718 14.5465 37.7978 17.9668 37.7978 20.8285C37.7978 21.9259 37.362 22.9782 36.5864 23.754C35.8109 24.53 34.7589 24.9659 33.662 24.9659Z" fill="white"/>
<path d="M19.8762 32.5513C19.8762 32.7341 19.9487 32.9096 20.0779 33.0389C20.2074 33.1682 20.3826 33.2409 20.5654 33.2409C21.465 33.1959 22.3157 32.8182 22.9524 32.1811C23.5894 31.5439 23.967 30.6929 24.012 29.7932C24.012 29.4122 23.7032 29.1035 23.3226 29.1035C22.9421 29.1035 22.6333 29.4122 22.6333 29.7932C22.588 30.3265 22.3556 30.8268 21.9773 31.2055C21.5988 31.5841 21.0987 31.8166 20.5654 31.8619C20.1848 31.8619 19.8762 32.1705 19.8762 32.5513H19.8762Z" fill="white"/>
<path d="M35.73 20.8281C35.3494 20.8281 35.0406 21.1368 35.0406 21.5178C34.9915 21.8761 34.7097 22.158 34.3515 22.2072C33.9707 22.2072 33.6621 22.5161 33.6621 22.8968C33.6621 23.2775 33.9707 23.5865 34.3515 23.5865C34.8913 23.5597 35.4018 23.3332 35.784 22.9508C36.1662 22.5685 36.3926 22.0578 36.4194 21.5178C36.4194 21.3349 36.3467 21.1594 36.2174 21.0301C36.0882 20.9009 35.9128 20.8281 35.73 20.8281Z" fill="white"/>
</g>
</svg>
