<svg width="132" height="60" viewBox="0 0 132 60" fill="none" xmlns="http://www.w3.org/2000/svg">
<g clip-path="url(#clip0_1616_3911)">
<path d="M0 39.4856C2.35632 39.3719 4.71619 39.2724 7.07251 39.2013C9.42883 39.1302 11.7887 39.0698 14.145 39.0058L21.2175 38.8779L28.29 38.8032L27.8422 38.9738L31.9258 35.3878C33.2834 34.1901 34.6517 33.0066 36.0236 31.8338L40.1356 28.2798L44.2689 24.7577L44.6918 24.4023L45.0899 24.7577C46.4298 25.991 47.7519 27.2456 49.0811 28.5001C50.4103 29.7547 51.7324 30.9879 53.0509 32.2638C54.3695 33.5397 55.6809 34.7943 56.9923 36.0631C58.3038 37.3319 59.601 38.6149 60.9018 39.9085C59.4801 38.7547 58.0763 37.5878 56.6902 36.4078C55.3006 35.2279 53.9039 34.0515 52.5249 32.8538C51.146 31.6561 49.7563 30.4797 48.3774 29.2785C46.9984 28.0772 45.623 26.8866 44.2618 25.6711H45.0792L41.0241 29.2927L36.9618 32.8787C35.6007 34.0728 34.2395 35.267 32.8676 36.4327L28.7556 39.9867L28.5601 40.1573H28.29L21.2175 40.0827L14.145 39.9583C11.7887 39.8943 9.42883 39.8446 7.07251 39.7593C4.71619 39.674 2.35632 39.6029 0 39.4856Z" fill="white"/>
<path d="M49.042 29.079L64.8965 15.0051L65.2092 14.7314L65.5007 15.0087L90.9546 39.4035L64.8929 15.659L65.4971 15.6626L49.998 30.131L49.042 29.079Z" fill="white"/>
<path d="M81.0247 29.9325L88.4952 24.7294L88.8933 24.4521L89.2416 24.7685L103.941 38.2133L103.717 38.1245L132 39.4039L103.696 38.8246L103.571 38.8211L103.472 38.7358L88.4455 25.6605L89.1918 25.6996L81.8527 31.0875L81.0247 29.9325Z" fill="white"/>
<path d="M25.6956 39.4819C25.74 37.5773 25.9097 35.6777 26.2038 33.7955C26.5022 31.9197 26.9357 30.068 27.501 28.2548L27.7213 27.5795L27.9595 26.9078C28.123 26.4635 28.2687 26.0122 28.4464 25.5715C28.8018 24.6936 29.1572 23.7945 29.5801 22.9628C30.003 22.1312 30.4366 21.2711 30.8773 20.4323C31.318 19.5936 31.8298 18.7939 32.37 18.0121C35.4969 13.2649 39.5984 9.23783 44.402 6.19843C49.2056 3.15904 54.6012 1.17701 60.23 0.384101C63.959 -0.137148 67.7424 -0.137148 71.4714 0.384101C78.9373 1.45868 85.9443 4.63245 91.676 9.53571C85.8933 4.74272 78.868 1.69103 71.4181 0.735949C67.7229 0.274774 63.9815 0.328597 60.3011 0.89588C54.7972 1.75886 49.5396 3.78185 44.8768 6.83074C40.2141 9.87962 36.2526 13.8848 33.255 18.5807C32.7432 19.3484 32.306 20.1587 31.8334 20.9548C31.3607 21.7509 30.9697 22.5861 30.6108 23.4426C30.2518 24.2991 29.9 25.1343 29.5446 25.9908C29.3775 26.4209 29.2425 26.8616 29.0932 27.2952L28.8693 27.9491L28.6809 28.6102C28.1623 30.3757 27.7715 32.1763 27.5117 33.9981C27.2576 35.8176 27.1222 37.6518 27.1065 39.489L25.6956 39.4819Z" fill="white"/>
<path d="M37.1933 48.3149H38.26L40.9808 55.0857L43.696 48.3149H44.7684L41.3915 56.6201H40.5587L37.1933 48.3149ZM36.8453 48.3149H37.7865L37.9405 53.3802V56.6201H36.8453V48.3149ZM44.1695 48.3149H45.1106V56.6201H44.0154V53.3802L44.1695 48.3149ZM48.2251 48.3149V56.6201H47.1242V48.3149H48.2251ZM55.264 55.7246V56.6201H51.1114V55.7246H55.264ZM51.3282 48.3149V56.6201H50.2273V48.3149H51.3282ZM61.801 55.7246V56.6201H57.4031V55.7246H61.801ZM57.6255 48.3149V56.6201H56.5246V48.3149H57.6255ZM61.2191 51.8857V52.7812H57.4031V51.8857H61.2191ZM61.7439 48.3149V49.2161H57.4031V48.3149H61.7439ZM66.2388 49.0507L63.4894 56.6201H62.3657L65.5315 48.3149H66.2559L66.2388 49.0507ZM68.5432 56.6201L65.7881 49.0507L65.771 48.3149H66.4955L69.6727 56.6201H68.5432ZM68.4006 53.5456V54.4468H63.7347V53.5456H68.4006ZM72.5704 54.1103L74.2189 48.3149H75.0174L74.5554 50.568L72.7814 56.6201H71.9885L72.5704 54.1103ZM70.8648 48.3149L72.1768 53.9962L72.5704 56.6201H71.7832L69.7696 48.3149H70.8648ZM77.1508 53.9905L78.4342 48.3149H79.5351L77.5273 56.6201H76.7401L77.1508 53.9905ZM75.1372 48.3149L76.7401 54.1103L77.3219 56.6201H76.529L74.8178 50.568L74.3501 48.3149H75.1372ZM83.5794 49.0507L80.83 56.6201H79.7062L82.872 48.3149H83.5965L83.5794 49.0507ZM85.8838 56.6201L83.1287 49.0507L83.1116 48.3149H83.836L87.0132 56.6201H85.8838ZM85.7412 53.5456V54.4468H81.0752V53.5456H85.7412ZM87.9715 48.3149L90.1277 52.4846L92.2896 48.3149H93.5388L90.6753 53.5171V56.6201H89.5744V53.5171L86.7109 48.3149H87.9715Z" fill="white"/>
</g>
<defs>
<clipPath id="clip0_1616_3911">
<rect width="132" height="59.274" fill="white"/>
</clipPath>
</defs>
</svg>
